<svg fill="none" height="525" viewBox="0 0 525 525" width="525" xmlns="http://www.w3.org/2000/svg"><path d="m362.552 171.402c0 8.19-2.344 15.834-6.384 22.302-7.442 11.895-20.647 19.799-35.708 19.799-12.08 0-22.966-5.09-30.652-13.238-7.09-7.535-11.441-17.691-11.441-28.863 0-2.948.303-5.821.882-8.593 3.965-19.127 20.908-33.499 41.211-33.499 17.329 0 32.214 10.475 38.656 25.435 2.218 5.107 3.436 10.744 3.436 16.657z" fill="#3addc1"/><path d="m385.181 289.792-5.275 5.284-116.97 116.97v-49.896l92.022-92.022 5.283-5.276c18.606-18.614 18.606-48.896-.008-67.51-1.294-1.294-2.655-2.512-4.066-3.638 4.041-6.468 6.384-14.112 6.384-22.302 0-5.913-1.218-11.55-3.435-16.657 9.475 4.032 18.337 9.921 26.065 17.649 32.424 32.424 32.424 84.982 0 117.398z" fill="#3addc1"/><path d="m262.937 0v57.8088c112.845.2352 204.254 91.7872 204.254 204.6912s-91.409 204.448-204.254 204.683v57.817c144.774-.235 262.063-117.667 262.063-262.5s-117.289-262.2648-262.063-262.5zm-262.5002 277.687v-30.366c-.294 5.023-.4368 10.08-.4368 15.179s.1428 10.164.4368 15.187z" fill="#77a2c9"/><path d="m57.8095 262.5c0 113.047 91.6445 204.683 204.6915 204.683h.437v57.817h-.437c-139.877 0-254.2011-109.402-262.0635-247.313v-30.366c7.8624-137.911 122.1865-247.321 262.0635-247.321h.437v57.8088h-.437c-113.047 0-204.6915 91.6442-204.6915 204.6912z" fill="#578fca"/><path d="m262.935 362.15v49.896l-.437.436-117.407-117.406-5.275-5.284c-32.424-32.416-32.424-84.974 0-117.398 7.728-7.728 16.59-13.617 26.065-17.649 6.443-14.96 21.328-25.435 38.657-25.435 20.303 0 37.246 14.372 41.21 33.499.58 2.772.882 5.645.882 8.593 0 11.172-4.351 21.328-11.44 28.863-7.686 8.148-18.573 13.238-30.652 13.238-15.061 0-28.266-7.904-35.708-19.799-1.412 1.126-2.772 2.344-4.066 3.638-9.022 9.013-13.986 21-13.986 33.751s4.964 24.738 13.978 33.759l5.283 5.276 92.459 92.458z" fill="#0fbfae"/></svg>